<svg width="20" height="18" viewBox="0 0 20 18" fill="none" xmlns="http://www.w3.org/2000/svg">
<path d="M0 9C0 4.02944 4.02944 0 9 0H11C15.9706 0 20 4.02944 20 9C20 13.9706 15.9706 18 11 18H9C4.02944 18 0 13.9706 0 9Z" fill="#1D1F2E"/>
<path d="M10.0014 12.132C9.45871 12.132 8.98388 12 8.57688 11.736C8.17354 11.472 7.85821 11.0742 7.63088 10.5425C7.40721 10.0108 7.29538 9.34533 7.29538 8.546C7.29538 7.74667 7.40721 7.083 7.63088 6.555C7.85821 6.02333 8.17354 5.62733 8.57688 5.367C8.98388 5.103 9.45871 4.971 10.0014 4.971C10.5404 4.971 11.0134 5.103 11.4204 5.367C11.8274 5.62733 12.1427 6.02333 12.3664 6.555C12.5937 7.083 12.7074 7.74667 12.7074 8.546C12.7074 9.34533 12.5937 10.0108 12.3664 10.5425C12.1427 11.0742 11.8274 11.472 11.4204 11.736C11.0134 12 10.5404 12.132 10.0014 12.132ZM10.0014 11.34C10.5954 11.34 11.0464 11.098 11.3544 10.614C11.6624 10.1263 11.8164 9.437 11.8164 8.546C11.8164 7.655 11.6624 6.9675 11.3544 6.4835C11.0464 5.99583 10.5954 5.752 10.0014 5.752C9.41471 5.752 8.96554 5.99583 8.65388 6.4835C8.34221 6.9675 8.18637 7.655 8.18637 8.546C8.18637 9.437 8.34221 10.1263 8.65388 10.614C8.96554 11.098 9.41471 11.34 10.0014 11.34Z" fill="white"/>
</svg>
